<svg xmlns="http://www.w3.org/2000/svg" width="89" height="74" viewBox="0 0 89 74">
  <path id="bars-solid" d="M3.179,73.592H85.821A3.1,3.1,0,0,0,89,70.571V63.02A3.1,3.1,0,0,0,85.821,60H3.179A3.1,3.1,0,0,0,0,63.02v7.551A3.1,3.1,0,0,0,3.179,73.592Zm0,30.2H85.821A3.1,3.1,0,0,0,89,100.776V93.224a3.1,3.1,0,0,0-3.179-3.02H3.179A3.1,3.1,0,0,0,0,93.224v7.551A3.1,3.1,0,0,0,3.179,103.8Zm0,30.2H85.821A3.1,3.1,0,0,0,89,130.98v-7.551a3.1,3.1,0,0,0-3.179-3.02H3.179A3.1,3.1,0,0,0,0,123.429v7.551A3.1,3.1,0,0,0,3.179,134Z" transform="translate(0 -60)" fill="#fff"/>
</svg>
